<?xml version="1.0" standalone="no"?>
<!DOCTYPE svg PUBLIC "-//W3C//DTD SVG 20010904//EN"
 "http://www.w3.org/TR/2001/REC-SVG-20010904/DTD/svg10.dtd">
<svg version="1.0" xmlns="http://www.w3.org/2000/svg"
 width="1109.000000pt" height="1109.000000pt" viewBox="0 0 1109.000000 1109.000000"
 preserveAspectRatio="xMidYMid meet">
<metadata>
Created by potrace 1.11, written by Peter Selinger 2001-2013
</metadata>
<g transform="translate(0.000000,1109.000000) scale(0.100000,-0.100000)"
fill="#000000" stroke="none">
<path d="M1601 10125 c-32 -14 -81 -61 -81 -78 0 -4 -9 -26 -19 -50 -10 -23
-22 -58 -26 -77 -4 -19 -11 -53 -17 -75 -57 -239 -78 -370 -100 -615 -18 -195
-17 -987 0 -1215 18 -229 20 -257 32 -352 6 -46 15 -120 20 -165 17 -133 62
-409 90 -548 40 -198 62 -292 101 -430 6 -19 14 -49 18 -66 5 -18 11 -37 15
-43 10 -16 -16 -247 -44 -396 -11 -53 -44 -227 -60 -310 -31 -166 -63 -381
-81 -555 -15 -143 -16 -688 -1 -790 6 -41 16 -111 22 -155 14 -105 30 -202 40
-245 4 -19 13 -60 20 -90 10 -49 37 -147 60 -220 4 -14 13 -45 21 -70 7 -25
16 -49 21 -54 4 -6 8 -19 8 -31 0 -12 4 -25 9 -31 4 -5 20 -40 35 -79 51 -131
202 -436 225 -455 4 -3 18 -26 31 -53 14 -26 28 -47 32 -47 5 0 8 -6 8 -13 0
-7 8 -22 19 -33 10 -11 24 -31 31 -44 7 -13 17 -29 22 -34 5 -6 26 -36 48 -66
46 -65 43 -60 100 -130 81 -99 113 -134 225 -245 115 -114 142 -139 235 -215
30 -25 57 -47 60 -50 12 -12 121 -91 195 -141 44 -30 82 -56 85 -59 3 -3 52
-34 110 -69 138 -83 480 -251 585 -287 22 -8 49 -18 60 -23 30 -14 178 -66
280 -99 135 -44 229 -71 355 -102 22 -5 57 -14 78 -20 20 -5 62 -14 92 -20 30
-6 83 -18 118 -26 99 -24 287 -53 472 -73 52 -6 145 -16 205 -22 144 -16 755
-16 900 -1 447 49 580 70 815 131 122 31 328 97 395 126 76 33 290 138 295
145 3 4 25 17 49 30 24 12 49 26 55 31 6 5 74 50 151 100 77 51 142 95 145 98
3 4 21 18 40 31 19 13 37 27 40 30 3 3 21 17 40 30 79 56 315 294 369 373 8
12 18 24 21 27 13 10 110 160 110 170 0 5 4 10 8 10 5 0 16 15 25 33 9 17 30
55 47 82 17 28 33 58 37 67 3 10 9 18 14 18 5 0 9 8 9 18 0 9 9 28 20 42 11
14 20 30 20 36 0 6 15 42 33 80 19 38 41 85 49 104 9 19 25 56 37 82 11 26 21
54 21 62 0 8 5 18 10 21 5 3 10 15 10 26 0 19 4 28 28 76 7 13 12 31 12 41 0
10 4 22 8 27 5 6 14 30 21 55 7 25 17 55 22 68 5 13 9 34 9 47 0 13 4 26 9 29
5 3 11 20 14 38 3 18 11 53 17 78 27 107 63 296 80 420 48 332 47 766 0 1095
-19 133 -43 271 -59 340 -5 22 -14 63 -20 90 -6 28 -20 84 -32 125 -33 119
-38 138 -48 173 -14 52 -70 217 -85 251 -7 17 -19 47 -26 66 -23 63 -94 210
-102 210 -4 0 -8 9 -8 19 0 11 -4 21 -8 23 -12 5 -52 77 -52 94 0 8 23 49 51
90 64 95 101 162 188 339 64 132 82 170 115 248 7 17 21 48 29 67 9 19 48 134
88 255 39 121 75 229 79 240 5 11 11 31 14 45 2 14 9 42 15 63 6 20 16 53 21
72 6 19 15 51 20 70 6 19 15 51 20 70 6 19 14 50 19 68 16 55 52 190 61 227 4
19 18 69 30 110 12 41 24 90 27 108 3 17 9 32 14 32 5 0 9 10 9 22 0 12 8 47
19 77 10 31 24 76 31 101 7 25 20 70 30 100 10 30 23 75 30 100 7 25 20 65 28
90 8 25 18 62 23 83 5 20 13 54 19 75 14 55 29 120 40 177 6 28 15 68 20 90
33 146 50 249 56 357 8 114 3 136 -33 175 -68 72 -172 69 -254 -8 -19 -17 -54
-48 -79 -68 -25 -20 -47 -38 -50 -41 -8 -8 -63 -53 -100 -80 -29 -22 -123 -95
-170 -133 -8 -7 -35 -28 -60 -47 -25 -19 -47 -37 -50 -40 -3 -3 -34 -30 -70
-60 -36 -30 -67 -57 -70 -60 -3 -3 -26 -22 -52 -43 -26 -21 -53 -43 -60 -50
-7 -7 -38 -32 -68 -57 -30 -24 -62 -51 -70 -60 -8 -8 -44 -40 -80 -70 -36 -30
-67 -57 -70 -60 -3 -3 -39 -35 -80 -70 -41 -36 -82 -72 -90 -80 -8 -8 -35 -31
-60 -51 -25 -20 -56 -47 -70 -59 -14 -12 -45 -39 -70 -59 -25 -20 -52 -43 -60
-51 -8 -8 -37 -33 -64 -54 -26 -22 -58 -49 -70 -60 -12 -12 -39 -36 -61 -55
-22 -18 -86 -77 -143 -129 -57 -53 -111 -101 -120 -108 -32 -22 -287 -279
-352 -354 -36 -41 -72 -82 -80 -90 -9 -8 -31 -35 -50 -60 -34 -44 -69 -80 -78
-80 -2 0 -18 6 -35 14 -159 72 -482 183 -627 216 -374 85 -657 120 -979 120
-102 0 -225 -5 -275 -10 -274 -31 -319 -37 -496 -71 -134 -25 -514 -138 -635
-189 -11 -4 -36 -13 -55 -20 -19 -7 -54 -21 -77 -31 -24 -11 -47 -19 -53 -19
-6 0 -18 -4 -28 -9 -28 -14 -65 -29 -89 -36 -17 -5 -23 -2 -23 9 0 9 -4 16
-10 16 -5 0 -10 9 -10 20 0 11 -3 20 -8 20 -4 0 -13 14 -20 30 -6 17 -18 44
-24 60 -7 17 -16 30 -20 30 -5 0 -8 9 -8 20 0 11 -4 20 -10 20 -5 0 -10 9 -10
20 0 11 -4 20 -10 20 -5 0 -10 5 -10 11 0 6 -8 23 -19 37 -10 15 -28 43 -39
63 -11 20 -26 47 -34 60 -7 13 -16 26 -19 29 -3 3 -16 25 -30 50 -13 25 -27
49 -32 55 -27 36 -127 197 -127 204 0 5 -3 11 -8 13 -4 2 -36 46 -71 98 -36
52 -68 97 -71 100 -3 3 -17 21 -30 40 -13 19 -30 41 -37 48 -7 8 -26 30 -41
50 -15 21 -34 44 -42 52 -9 8 -31 35 -50 60 -65 84 -179 201 -481 495 -96 94
-204 195 -239 225 -36 30 -72 62 -80 70 -8 9 -53 46 -100 84 -47 37 -93 73
-102 81 -10 8 -73 56 -140 107 -68 50 -125 94 -128 97 -31 35 -129 49 -179 26z"/>
</g>
</svg>
